<svg width="17" height="22" viewBox="0 0 17 22" fill="none" xmlns="http://www.w3.org/2000/svg">
<path d="M16.7357 5.47772C16.4068 4.35146 15.8783 3.40326 15.1197 2.57926C14.3781 1.7733 13.5248 1.16207 12.5105 0.710669C11.3554 0.197802 10.0163 -0.0513704 8.73682 0.00882762C8.27004 0.0304585 7.81425 0.0553363 7.3673 0.120887C6.10815 0.303412 4.99953 0.683686 3.97799 1.28378C2.67446 2.05012 1.65672 3.09279 0.95315 4.38296C0.587812 5.05436 0.228016 6.23826 0.0749623 7.01123C-0.106018 7.9228 0.0534113 9.50387 0.416574 10.3956C0.87028 11.507 1.24364 11.9995 2.15394 12.687C2.15944 12.6911 2.72222 13.1018 3.09725 13.0956C3.78012 13.0823 3.91586 12.4205 3.98098 12.1024C3.99323 12.0424 4.00505 11.9829 4.01943 11.9271C4.03211 11.8779 4.04861 11.8252 4.0651 11.7703C4.16148 11.4543 4.29303 11.0218 4.07481 10.6383C3.9928 10.4946 3.896 10.3827 3.81056 10.2844C3.76406 10.2308 3.71756 10.1792 3.67989 10.1222C3.35603 9.6348 3.19199 9.02488 3.19199 8.30952C3.19199 7.37093 3.40171 6.52083 3.83299 5.71079C4.61562 4.24155 5.91452 3.3141 7.58972 3.02834C8.5432 2.86656 9.65393 2.93426 10.4877 3.20485C11.2492 3.45231 11.8974 3.88997 12.3625 4.4712C12.8547 5.0863 13.1363 5.86655 13.1984 6.79058C13.239 7.38036 13.1862 7.97422 13.1426 8.36884C12.9743 9.88739 12.538 11.1098 11.8463 12.0028C11.2797 12.7355 10.6687 13.1029 9.97779 13.1265C9.533 13.144 9.20066 13.0519 8.90005 12.8338C8.61633 12.6288 8.44764 12.3762 8.36815 12.0396C8.27809 11.6553 8.38673 11.2568 8.50215 10.8349L8.52077 10.7675C8.62184 10.3962 8.72712 10.0571 8.83069 9.72325C8.99348 9.19731 9.16218 8.65338 9.30128 8.02266C9.45858 7.31051 9.47932 6.73551 9.36558 6.26525C9.22521 5.68165 8.91568 5.2446 8.44552 4.96568C7.94787 4.67154 7.243 4.61498 6.65148 4.82151C5.76948 5.12658 5.09678 5.93811 4.80543 7.04809C4.65788 7.61194 4.61476 8.20369 4.67862 8.80589C4.72767 9.27809 4.83167 9.70697 5.02447 10.2252C5.01815 10.2477 5.01096 10.2713 5.00417 10.2942C4.99022 10.3405 4.97755 10.385 4.96823 10.4234C4.76063 11.3007 4.55895 12.166 4.3577 13.0298C4.1666 13.8499 3.97548 14.6687 3.78012 15.4957L3.73613 15.6811C3.53615 16.5237 3.32979 17.3949 3.28205 18.4351L3.26048 18.8696C3.21818 19.6776 3.17505 20.5134 3.28205 21.2866C3.30317 21.4374 3.3501 21.7757 3.67865 21.8939C3.77675 21.9687 3.87144 22 3.96318 22C4.23804 22 4.48283 21.717 4.69087 21.477C5.37033 20.6942 5.94791 19.7059 6.457 18.4561C6.6849 17.8971 6.83585 17.2957 6.9817 16.7139L7.06965 16.3672C7.17619 15.9529 7.28062 15.533 7.3838 15.1176L7.3906 15.09C7.58253 15.2601 7.80408 15.4137 8.06074 15.5561C8.60408 15.861 9.21717 16.0386 9.88224 16.0838C10.5059 16.1267 11.1621 16.0457 11.8864 15.8351C12.4365 15.6761 12.9633 15.4346 13.4525 15.1172C15.2076 13.9783 16.4042 11.9859 16.8216 9.50734C16.9467 8.76671 17 8.17131 17 7.51664C17 6.76122 16.9112 6.075 16.7357 5.47772ZM15.9683 9.35948C15.592 11.5918 14.5328 13.3741 12.9857 14.378C12.5676 14.6495 12.1177 14.8556 11.648 14.9914C11.0218 15.1737 10.4624 15.2446 9.94103 15.2084C9.39515 15.1712 8.91737 15.0338 8.47809 14.7873C8.03875 14.5437 7.75377 14.279 7.55378 13.9297L7.0227 13.0005L6.5441 14.9034C6.44136 15.3164 6.33775 15.7337 6.23163 16.1459L6.14283 16.4977C5.99783 17.0749 5.86124 17.6201 5.6566 18.121C5.20078 19.2408 4.69174 20.1265 4.10273 20.8249C4.05666 20.2304 4.0913 19.5637 4.12516 18.9156L4.14712 18.476C4.19066 17.5188 4.38771 16.6888 4.578 15.8863L4.62238 15.6999C4.81773 14.8723 5.00884 14.0524 5.20039 13.2316C5.40163 12.3687 5.60287 11.5044 5.81009 10.6291C5.81598 10.6044 5.82487 10.5755 5.83373 10.5453C5.88577 10.3684 5.9399 10.1856 5.86672 9.99985C5.68112 9.51761 5.583 9.13303 5.53949 8.71336C5.48744 8.2176 5.52169 7.73321 5.64262 7.27348C5.85828 6.45185 6.32801 5.86075 6.93226 5.65169C7.08193 5.5996 7.2388 5.57732 7.3893 5.57732C7.63496 5.57732 7.86244 5.6369 8.00875 5.72342C8.27173 5.8794 8.44046 6.12449 8.52415 6.4737C8.60452 6.80554 8.58165 7.26233 8.45652 7.8311C8.32503 8.42562 8.16942 8.92822 8.0045 9.46039C7.89795 9.80341 7.79014 10.152 7.68614 10.5337L7.66795 10.6004C7.53477 11.0871 7.3838 11.6386 7.5259 12.2431C7.65484 12.7905 7.93981 13.2173 8.39647 13.5478C8.85013 13.8765 9.3829 14.0235 10.007 14.0035C10.9558 13.9712 11.8035 13.4801 12.5274 12.5446C13.3202 11.5216 13.8166 10.1498 14.0035 8.46634C14.0504 8.03723 14.1079 7.39045 14.0627 6.73016C13.9874 5.62255 13.642 4.67667 13.0352 3.91849C12.464 3.20463 11.6746 2.66881 10.752 2.36932C9.79475 2.05802 8.52796 1.97856 7.44641 2.16279C5.49805 2.49528 3.98519 3.57784 3.07105 5.29388C2.56959 6.23524 2.32606 7.22162 2.32606 8.30952C2.32606 9.20266 2.53954 9.97716 2.96112 10.6117C3.01905 10.6994 3.08837 10.7812 3.16024 10.8637C3.22497 10.9382 3.28585 11.0085 3.32304 11.0738C3.34928 11.1454 3.27399 11.3928 3.23766 11.5117C3.21735 11.5788 3.19791 11.6433 3.18224 11.7035C3.16405 11.7735 3.14842 11.8485 3.13279 11.9242C3.11587 12.0068 3.09006 12.1343 3.06261 12.2044C2.95987 12.1637 2.77252 12.0593 2.67108 11.983C1.89309 11.3959 1.60767 11.0183 1.217 10.0605C0.923968 9.34065 0.778534 7.91595 0.923968 7.1841C1.08633 6.36401 1.43219 5.32003 1.71128 4.80733C2.33787 3.6584 3.24655 2.72818 4.41265 2.04283C5.33608 1.50035 6.34243 1.15588 7.49078 0.989414C7.89925 0.929435 8.33221 0.906049 8.777 0.885515C9.92454 0.83089 11.1275 1.05431 12.1625 1.5143C13.0665 1.91665 13.8267 2.46058 14.4863 3.17786C15.1515 3.90006 15.6152 4.73389 15.9053 5.72728C16.0571 6.24384 16.1341 6.84604 16.1341 7.51664C16.1341 8.11906 16.0846 8.67027 15.9683 9.35948Z" fill="black"/>
</svg>
