<svg width="30" height="19" viewBox="0 0 30 19" fill="none" xmlns="http://www.w3.org/2000/svg">
<path d="M28.1249 18.9531H24.1874C23.7187 18.9531 23.2499 18.6719 22.9687 18.2969L22.5937 17.6875C22.3593 17.4063 20.2031 14.9219 18.8906 14.125C18.3749 13.8438 18.1874 13.8906 18.1874 13.8906C18.1874 13.8906 18.1406 14.0313 18.1406 14.0781V16.5625C18.1406 17.875 17.0624 18.9062 15.7968 18.9062H14.8593C14.6249 18.9062 9.37495 18.8125 5.20307 12.5781C1.92182 7.70313 0.843696 4.51563 0.468696 2.6875C0.374946 2.26562 0.515571 1.84375 0.749946 1.51562C1.0312 1.1875 1.4062 1 1.82807 1H5.1562C5.76557 1 6.2812 1.375 6.4687 1.98438C6.8437 3.0625 7.7812 5.82813 8.9062 7.60938C10.5468 10.3281 11.2031 10.5625 11.3906 10.5625C11.5312 10.3281 11.4843 9.39063 11.4843 8.78125C11.4843 8.5 11.4843 8.26563 11.4843 7.98438C11.4843 7.79688 11.4843 7.5625 11.4843 7.32812C11.4843 6.15625 11.5312 4.5625 11.0624 3.8125L10.1249 2.45312C9.93745 2.17188 9.89057 1.79688 10.0781 1.46875C10.2187 1.14063 10.5468 0.953125 10.9218 0.953125H16.2656C17.0624 0.953125 17.6718 1.60938 17.6718 2.35938V9.10938C17.6718 9.15625 17.7187 9.20312 17.7187 9.20312C17.7187 9.20312 17.9062 9.20312 18.4218 8.73438C19.4999 7.65625 20.8593 5.64062 22.2187 2.875L22.6874 1.79688C22.9218 1.28125 23.4374 0.953125 23.9999 0.953125H27.4687C27.9374 0.953125 28.3593 1.1875 28.6406 1.5625C28.9218 1.9375 28.9687 2.45312 28.7812 2.875L28.4062 3.85938V3.90625C28.3593 4 27.0937 6.48438 25.7812 8.3125C24.7499 9.71875 24.3281 10.375 24.4218 10.6094C24.5156 10.75 25.1249 11.4531 25.7343 12.0156C26.8593 13.1875 28.2656 14.6875 28.7812 15.6719C29.0156 16.0938 29.2499 16.4688 29.3906 16.7969C29.6249 17.2188 29.6249 17.7344 29.3437 18.2031C29.0624 18.7188 28.6406 18.9531 28.1249 18.9531ZM18.2812 12.9531C18.6093 12.9531 18.9843 13.0938 19.4062 13.3281C20.9531 14.2188 23.2968 16.9844 23.3906 17.125L23.4374 17.1719L23.8124 17.7812C23.9062 17.9219 24.0468 18.0156 24.2343 18.0156H28.1249C28.3593 18.0156 28.4999 17.875 28.5468 17.7812C28.5937 17.7344 28.6874 17.5469 28.5468 17.3125C28.3593 16.9844 28.1718 16.6094 27.9374 16.1875C27.4687 15.3438 26.0624 13.8438 25.0312 12.7188C23.9999 11.5938 23.6249 11.2188 23.5312 10.9844C23.2499 10.2812 23.6718 9.71875 25.0312 7.84375C26.2499 6.15625 27.4218 3.85938 27.5624 3.57812L27.9374 2.59375C27.9843 2.45313 27.9843 2.26563 27.8906 2.17188C27.7968 2.03125 27.6562 1.98438 27.5156 1.98438H24.0468C23.8593 1.98438 23.6718 2.07813 23.6249 2.26563L23.1562 3.39062C22.1249 5.40625 20.6249 8.07812 19.1718 9.53125C18.5624 10.1406 17.9999 10.3281 17.5312 10.1875C16.9687 10 16.8281 9.39063 16.8281 9.34375C16.8281 9.29688 16.8281 9.29688 16.8281 9.25V2.45312C16.8281 2.17188 16.5937 1.98438 16.3593 1.98438H10.9218L11.8593 3.34375C12.4687 4.32812 12.4687 6.0625 12.4218 7.42188C12.4218 7.65625 12.4218 7.84375 12.4218 8.03125C12.4218 8.26562 12.4218 8.54688 12.4218 8.78125C12.4687 10.0938 12.4687 11.3125 11.6249 11.5C10.6874 11.6875 9.70307 10.7031 8.10932 8.125C7.0312 6.29688 6.0937 3.71875 5.62495 2.3125C5.57807 2.125 5.39057 1.98438 5.1562 1.98438H1.87495C1.73432 1.98438 1.5937 2.03125 1.49995 2.17188C1.4062 2.26563 1.4062 2.40625 1.4062 2.54688C1.73432 4.28125 2.81245 7.32812 5.99995 12.1094C9.89057 17.9219 14.8124 18.0156 14.8593 18.0156H15.7968C16.5937 18.0156 17.2031 17.3594 17.2031 16.6094V14.125C17.2031 14.0781 17.2031 13.4219 17.7187 13.0938C17.9062 13 18.0937 12.9531 18.2812 12.9531Z" fill="black"/>
</svg>
