<svg width="26" height="20" viewBox="0 0 26 20" fill="none" xmlns="http://www.w3.org/2000/svg">
<path d="M20.8296 0H5.17033C2.31935 0 0 2.43601 0 5.43024V14.5698C0 17.564 2.31935 20 5.17033 20H20.8296C23.6806 20 26 17.564 26 14.5698V5.43024C26 2.43601 23.6806 0 20.8296 0ZM24.9388 14.5698C24.9388 16.9512 23.0954 18.8889 20.8296 18.8889H5.17033C2.90461 18.8889 1.06122 16.9512 1.06122 14.5698V5.43024C1.06122 3.04879 2.90461 1.11111 5.17033 1.11111H20.8296C23.0954 1.11111 24.9388 3.04879 24.9388 5.43024V14.5698Z" fill="black"/>
<path d="M17.7012 9.79911L10.3496 5.29061C10.1863 5.19055 9.9827 5.18889 9.81761 5.28794C9.65259 5.38694 9.55078 5.57083 9.55078 5.76994V14.7858C9.55078 14.9849 9.65259 15.1688 9.81735 15.2678C9.89922 15.3169 9.99043 15.3414 10.0814 15.3414C10.1741 15.3414 10.2666 15.3159 10.3496 15.2652L17.7012 10.7578C17.8636 10.6582 17.9636 10.4756 17.9636 10.2784C17.9636 10.0812 17.8639 9.89866 17.7012 9.79911ZM10.612 13.8166V6.73922L16.3829 10.2784L10.612 13.8166Z" fill="black"/>
</svg>
